<?xml version="1.0" standalone="no"?>
<!DOCTYPE svg PUBLIC "-//W3C//DTD SVG 20010904//EN"
 "http://www.w3.org/TR/2001/REC-SVG-20010904/DTD/svg10.dtd">
<svg version="1.0" xmlns="http://www.w3.org/2000/svg"
 width="780.000000pt" height="780.000000pt" viewBox="0 0 780.000000 780.000000"
 preserveAspectRatio="xMidYMid meet">
<metadata>
Created by potrace 1.11, written by Peter Selinger 2001-2013
</metadata>
<g transform="translate(0.000000,780.000000) scale(0.100000,-0.100000)"
fill="#000000" stroke="none">
<path d="M964 5480 c-6 -6 -27 -12 -47 -13 -21 -1 -37 -5 -37 -8 0 -4 -8 -6
-17 -6 -35 0 -44 -3 -38 -13 3 -5 0 -7 -8 -4 -7 2 -27 -1 -43 -7 -16 -7 -32
-12 -36 -11 -5 1 -8 -2 -8 -7 0 -5 -10 -13 -22 -17 -25 -8 -84 -69 -94 -96 -3
-10 -10 -18 -16 -18 -6 0 -8 -3 -5 -7 4 -3 2 -12 -4 -20 -6 -7 -8 -13 -4 -13
4 0 2 -6 -4 -13 -6 -8 -13 -24 -15 -38 -3 -13 -5 -26 -6 -29 -2 -3 -2 -8 -1
-12 0 -5 -5 -8 -11 -8 -9 0 -8 -4 2 -10 9 -6 10 -10 3 -10 -7 0 -10 -9 -8 -21
2 -12 0 -31 -6 -41 -9 -16 -8 -19 2 -13 9 6 10 3 6 -8 -4 -10 -10 -24 -14 -34
-5 -12 -3 -14 8 -8 11 7 12 6 2 -6 -7 -9 -11 -37 -9 -67 1 -32 -1 -49 -7 -45
-6 4 -7 1 -2 -7 9 -15 13 -70 5 -70 -3 0 -5 -20 -5 -45 0 -25 3 -45 6 -45 10
0 5 -34 -6 -42 -6 -5 -5 -8 4 -8 10 0 11 -3 2 -13 -6 -8 -8 -17 -4 -21 8 -8 6
-134 -3 -147 -3 -5 -2 -9 3 -9 4 0 7 -19 5 -42 -2 -24 -3 -58 -2 -75 0 -21 -4
-33 -12 -33 -10 0 -9 -3 1 -9 12 -8 12 -12 2 -25 -11 -13 -11 -16 0 -16 11 0
12 -2 1 -9 -7 -4 -14 -22 -14 -40 -1 -17 -5 -34 -10 -37 -4 -3 -6 -10 -3 -15
4 -5 2 -9 -4 -9 -6 0 -8 -6 -5 -13 2 -7 -4 -24 -16 -37 -11 -13 -20 -27 -20
-32 0 -5 -4 -7 -9 -3 -5 3 -12 -4 -16 -15 -4 -11 -11 -18 -16 -15 -5 4 -11 0
-14 -7 -3 -8 -15 -15 -27 -15 -12 -1 -25 -8 -29 -15 -5 -7 -9 -9 -9 -4 0 5 -6
4 -13 -3 -10 -8 -17 -7 -25 1 -8 8 -13 8 -17 -3 -4 -10 -18 -14 -43 -13 -20 0
-45 -3 -54 -7 -10 -6 -19 -5 -23 1 -3 5 -11 10 -16 10 -6 0 -7 -5 -3 -11 4 -7
-1 -7 -16 1 -15 8 -20 8 -16 1 4 -6 2 -11 -3 -11 -6 0 -11 4 -11 9 0 5 -8 8
-17 7 -16 -3 -18 -16 -20 -102 -1 -54 1 -93 3 -87 4 10 11 10 26 2 15 -8 19
-8 13 1 -9 14 27 10 37 -5 5 -6 8 -6 8 2 0 12 24 12 36 0 4 -4 13 -2 21 4 10
9 13 8 13 -1 0 -10 3 -10 14 -1 10 8 16 9 21 1 3 -5 22 -10 41 -10 19 0 34 -4
34 -10 0 -5 7 -7 15 -4 8 4 15 1 15 -4 0 -6 9 -9 20 -7 11 2 18 0 15 -4 -2 -5
5 -11 16 -14 14 -4 18 -10 13 -19 -4 -7 -4 -10 0 -6 8 6 45 -25 47 -39 0 -5 7
-16 16 -25 8 -9 16 -28 17 -42 0 -14 5 -26 9 -26 5 0 7 -8 6 -17 -1 -10 0 -21
1 -25 1 -5 3 -11 4 -15 1 -5 5 -14 10 -22 7 -11 6 -12 -5 -6 -11 7 -12 6 -3
-6 6 -8 11 -27 10 -42 -1 -16 2 -31 7 -34 5 -3 3 -9 -4 -14 -12 -8 -11 -11 1
-19 13 -9 13 -10 0 -10 -9 0 -11 -3 -5 -8 11 -8 16 -42 6 -42 -3 0 -6 -13 -6
-30 0 -16 2 -30 5 -30 3 0 5 -16 5 -35 0 -19 -4 -35 -8 -35 -4 0 -3 -9 3 -20
8 -15 8 -20 -2 -20 -9 0 -9 -3 2 -10 12 -8 12 -10 1 -10 -11 0 -11 -3 -1 -15
10 -12 10 -15 -1 -15 -9 -1 -8 -5 5 -15 20 -15 20 -15 0 -15 -16 0 -17 -2 -4
-10 12 -8 12 -10 1 -10 -10 0 -11 -3 -2 -13 8 -10 7 -17 -1 -25 -7 -7 -8 -12
-3 -12 6 0 10 -11 10 -25 0 -14 -2 -25 -5 -25 -10 0 2 -125 13 -139 9 -11 9
-13 0 -8 -8 5 -11 -3 -10 -28 1 -19 7 -35 12 -35 6 0 3 -5 -5 -10 -8 -5 -10
-10 -5 -10 9 0 12 -18 16 -92 0 -10 5 -18 10 -18 6 0 8 -4 5 -8 -3 -5 2 -22
10 -38 9 -16 15 -30 15 -31 -4 -15 2 -34 19 -53 11 -13 20 -26 20 -29 0 -10
44 -58 55 -60 6 -1 19 -10 30 -20 12 -9 26 -16 33 -13 7 2 12 -1 12 -7 0 -6
11 -11 25 -11 14 0 25 -5 25 -10 0 -6 3 -9 8 -9 24 4 72 -2 68 -9 -2 -4 11 -7
30 -6 19 1 34 -1 34 -6 0 -4 11 -6 25 -5 13 2 29 -3 36 -11 6 -8 16 -14 22
-14 6 0 2 7 -9 15 -27 20 -8 19 28 -3 23 -13 32 -14 35 -4 3 6 9 12 14 12 6 0
7 -4 4 -10 -3 -5 -2 -10 4 -10 5 0 13 5 16 11 4 6 14 7 24 4 29 -12 72 -15 66
-5 -4 6 -1 10 4 10 6 0 11 -4 11 -8 0 -5 7 -9 15 -9 12 0 15 18 15 97 0 98 -4
115 -24 103 -17 -11 -35 -12 -42 -2 -3 5 -13 5 -24 -1 -10 -6 -21 -6 -24 -1
-6 8 -60 6 -76 -4 -4 -3 -13 2 -20 10 -8 10 -18 11 -36 4 -19 -6 -23 -6 -18 3
5 8 2 9 -9 5 -10 -4 -17 -1 -17 5 0 6 -3 8 -7 5 -3 -4 -15 1 -26 10 -15 13
-18 14 -12 3 4 -8 -10 3 -32 25 -22 22 -38 45 -36 51 2 6 -3 18 -11 26 -11 12
-12 18 -3 28 9 10 9 11 0 6 -9 -5 -13 2 -14 23 -1 17 -2 39 -2 49 -1 9 -6 20
-12 24 -6 5 -5 8 4 8 10 0 11 3 3 13 -6 7 -7 18 -2 27 4 7 4 23 0 35 -5 14 -4
27 3 34 8 8 8 11 -2 11 -11 0 -11 3 -1 15 10 12 10 15 0 15 -10 0 -10 3 0 15
7 8 8 15 3 15 -11 0 -11 29 -1 46 4 5 3 16 -2 24 -5 9 -5 19 2 27 7 9 7 13 -1
13 -9 0 -9 5 0 21 9 17 8 20 -3 13 -11 -6 -11 -5 1 9 7 9 9 17 4 17 -11 0 -11
29 1 48 4 7 2 12 -6 12 -9 0 -9 3 2 10 8 5 10 10 5 10 -12 0 -13 40 -1 58 4 7
2 12 -5 12 -8 0 -8 4 1 15 10 12 10 15 -1 15 -11 0 -11 2 1 10 8 5 10 10 5 10
-12 0 -13 40 -1 58 4 7 4 12 -1 12 -10 0 -10 91 1 108 4 7 4 12 -1 11 -20 -3
-27 2 -13 11 11 7 11 10 2 10 -7 0 -10 5 -7 10 4 6 1 18 -7 27 -9 12 -9 15 -1
9 9 -5 11 -2 7 8 -3 9 -9 14 -14 11 -4 -2 -5 6 -3 19 3 13 0 27 -6 30 -5 4 -8
13 -4 21 3 8 0 15 -6 15 -6 0 -11 3 -10 8 3 19 -15 52 -29 52 -8 0 -12 3 -9 6
9 9 -57 74 -75 74 -7 0 -20 9 -28 19 -7 11 -17 18 -22 15 -4 -3 -8 -1 -8 4 0
5 -6 9 -12 10 -49 6 -60 10 -66 19 -4 5 -14 13 -22 16 -10 3 -3 8 18 12 17 4
32 11 32 16 0 5 6 6 14 3 7 -3 21 2 30 11 9 9 23 14 32 11 8 -3 12 -2 9 4 -6
9 8 14 28 11 4 0 7 6 7 14 0 8 5 15 10 15 12 0 50 37 50 49 0 5 7 11 15 15 8
3 15 12 15 21 0 8 5 15 11 15 6 0 8 7 5 16 -4 9 -2 13 5 8 7 -4 10 -1 7 7 -3
8 1 28 8 45 7 17 10 34 7 38 -4 3 -2 6 3 6 5 0 10 21 10 46 1 27 7 50 15 55 8
5 9 9 4 9 -11 0 -13 89 -3 106 4 5 3 16 -2 24 -5 9 -5 19 2 27 7 9 7 13 -1 13
-9 0 -9 5 0 21 9 17 8 20 -3 13 -11 -6 -11 -5 1 9 7 9 9 17 4 17 -11 0 -9 42
2 59 3 6 2 11 -3 11 -10 0 -9 30 2 48 4 7 2 12 -5 12 -8 0 -8 4 1 15 10 12 10
15 0 15 -10 0 -10 3 0 15 8 10 9 15 1 15 -7 0 -8 8 -1 24 6 17 5 26 -3 30 -8
3 -9 7 -2 13 12 10 16 43 4 43 -8 0 -5 33 6 50 3 6 2 10 -2 10 -10 0 -10 41 1
58 4 7 2 12 -4 12 -7 0 -8 6 0 19 7 14 7 22 0 26 -8 5 -8 11 -1 19 6 7 9 15 6
17 -7 8 16 93 28 101 9 6 8 8 -3 8 -10 0 -11 3 -3 8 6 4 13 14 15 22 7 33 92
91 121 82 4 -1 7 2 7 7 0 5 8 8 18 6 9 -1 22 0 27 4 19 11 48 11 60 1 9 -7 15
-8 19 -1 4 6 14 7 23 4 12 -5 14 -3 8 8 -5 8 2 5 14 -5 22 -20 22 -20 15 0 -7
16 -6 17 8 6 13 -10 17 -10 21 0 4 9 6 10 6 1 1 -7 8 -10 16 -7 9 4 15 0 15
-7 0 -11 3 -11 10 1 5 8 10 55 10 103 l0 88 -125 -2 c-86 -2 -122 -6 -118 -13
4 -6 -1 -5 -10 3 -11 9 -17 10 -17 2 0 -6 -5 -11 -11 -11 -5 0 -7 5 -4 10 8
13 2 13 -11 0z"/>
<path d="M6600 5398 l0 -93 47 0 c27 0 51 5 55 10 5 6 8 6 8 -2 0 -6 9 -9 22
-5 12 3 19 1 15 -5 -3 -5 0 -10 8 -10 8 0 12 4 10 7 -3 4 6 8 20 8 14 0 23 -4
20 -8 -7 -12 29 -7 37 5 5 6 8 5 8 -2 0 -8 13 -13 29 -13 16 0 34 -7 41 -15 7
-8 16 -12 21 -9 5 3 12 -2 15 -10 3 -9 10 -14 14 -11 7 4 23 -21 17 -28 -1 -2
6 -12 16 -22 10 -10 16 -26 14 -37 -3 -10 -1 -16 4 -12 5 3 10 -6 10 -20 2
-34 3 -39 12 -53 5 -8 3 -13 -5 -13 -8 0 -9 -3 -3 -8 13 -8 13 -22 1 -41 -6
-9 -5 -12 1 -8 7 4 10 -20 10 -68 0 -45 -4 -72 -9 -69 -6 4 -2 -6 8 -22 11
-15 14 -25 8 -21 -7 4 -15 0 -18 -9 -3 -8 -2 -13 3 -10 5 3 12 -1 15 -10 4 -9
2 -13 -5 -8 -8 4 -9 -1 -4 -15 4 -13 1 -29 -7 -38 -11 -14 -11 -16 1 -8 11 6
13 3 9 -12 -3 -11 -1 -27 4 -36 7 -13 5 -15 -8 -10 -14 5 -14 3 -3 -15 10 -16
10 -24 1 -35 -7 -7 -8 -17 -4 -21 11 -11 11 -79 0 -93 -6 -7 -5 -14 3 -19 8
-5 9 -3 4 6 -5 9 -4 11 4 6 6 -4 9 -12 5 -17 -10 -17 -11 -70 -2 -76 5 -2 1
-12 -9 -20 -10 -8 -12 -12 -5 -8 9 5 12 -2 11 -22 -1 -15 2 -37 6 -47 7 -15 5
-17 -6 -11 -11 6 -11 5 -2 -5 6 -7 9 -19 6 -26 -3 -8 0 -14 5 -14 6 0 9 -9 7
-20 -2 -11 1 -22 6 -25 5 -4 6 -11 3 -17 -4 -6 0 -14 7 -19 12 -7 11 -9 -1 -9
-11 0 -12 -2 -3 -8 7 -4 14 -17 16 -29 1 -11 11 -28 20 -37 9 -10 15 -22 12
-27 -4 -5 -1 -9 5 -9 6 0 8 -4 5 -10 -3 -5 -1 -10 5 -10 14 0 41 -26 34 -32
-2 -3 9 -11 26 -18 16 -7 30 -17 30 -22 0 -5 5 -6 10 -3 6 3 10 1 10 -5 0 -6
5 -8 10 -5 6 3 10 1 10 -5 0 -6 5 -8 10 -5 6 3 13 -1 16 -10 6 -13 8 -14 15
-3 7 10 9 10 9 1 0 -7 11 -13 25 -13 14 0 25 -5 25 -11 0 -5 6 -7 13 -3 9 5 9
4 1 -5 -6 -7 -21 -13 -33 -14 -11 -1 -21 -5 -21 -10 0 -4 -4 -6 -9 -2 -5 3
-17 -2 -25 -11 -9 -8 -16 -12 -16 -8 0 3 -7 1 -15 -6 -8 -7 -15 -9 -15 -4 0 4
-6 -1 -14 -12 -8 -10 -17 -16 -21 -12 -8 8 -35 -14 -29 -24 2 -4 -4 -9 -13
-12 -10 -3 -29 -24 -43 -46 -14 -22 -29 -40 -34 -40 -5 0 -7 -3 -3 -6 3 -3 -1
-23 -8 -45 -8 -21 -12 -47 -10 -58 2 -13 -1 -18 -10 -15 -15 6 -16 -27 0 -38
6 -5 6 -8 -1 -8 -6 0 -11 -10 -10 -22 1 -13 -5 -29 -14 -36 -8 -8 -9 -11 -2
-7 16 8 16 -38 0 -68 -10 -20 -10 -21 5 -9 14 12 15 11 9 -15 -4 -15 -7 -45
-5 -66 1 -25 -2 -35 -8 -31 -6 4 -3 -6 7 -22 11 -15 14 -25 8 -21 -7 4 -15 0
-18 -9 -3 -8 -2 -13 3 -10 5 3 12 -1 15 -10 4 -9 2 -13 -5 -8 -8 4 -9 -1 -4
-15 4 -13 1 -29 -7 -38 -11 -14 -11 -16 1 -8 11 6 13 3 9 -12 -3 -11 -1 -27 4
-36 7 -13 5 -15 -8 -10 -14 5 -14 3 -3 -15 11 -17 10 -23 -2 -38 -8 -10 -9
-15 -2 -11 7 5 11 -4 11 -28 0 -24 -4 -33 -11 -28 -7 4 -6 -1 2 -11 12 -14 13
-21 2 -38 -8 -13 -8 -18 -1 -13 7 5 10 -2 7 -22 -2 -15 0 -37 6 -48 10 -19 9
-19 -8 -5 -11 9 -16 10 -11 2 4 -7 9 -24 12 -38 3 -19 1 -24 -8 -18 -10 6 -10
5 0 -8 10 -12 10 -18 1 -23 -8 -6 -7 -10 2 -16 10 -6 10 -9 2 -9 -6 0 -10 -9
-8 -20 2 -11 0 -20 -5 -20 -5 0 -7 -6 -4 -14 3 -8 1 -17 -5 -21 -6 -3 -11 -14
-11 -24 0 -17 -18 -40 -60 -75 -22 -17 -38 -23 -68 -25 -8 -1 -10 -6 -6 -13 5
-9 2 -9 -9 1 -9 7 -17 9 -17 4 0 -5 -16 -9 -35 -8 -20 1 -35 -3 -35 -9 0 -7
-3 -7 -8 1 -5 7 -13 9 -21 3 -8 -4 -24 -4 -37 0 -15 6 -26 5 -30 -1 -4 -8 -9
-7 -15 2 -6 9 -9 10 -9 2 0 -12 -17 -12 -37 0 -20 12 -24 -9 -22 -106 1 -80 4
-93 18 -92 9 0 23 5 30 10 10 5 12 4 7 -3 -8 -13 6 -16 18 -5 10 10 67 12 61
3 -3 -4 8 -7 23 -5 24 2 36 5 77 22 6 3 1 -3 -9 -11 -11 -9 -15 -16 -9 -16 7
0 19 7 28 16 10 11 24 14 41 10 16 -4 23 -3 20 3 -4 6 4 8 20 5 14 -3 23 -1
21 3 -3 5 11 8 31 8 21 0 42 6 49 15 11 13 14 13 23 0 8 -12 10 -13 10 -1 0 8
3 11 6 8 7 -7 64 21 75 36 3 5 10 9 15 9 19 1 53 31 47 41 -3 6 -1 7 5 3 6 -4
18 6 27 24 8 16 21 30 27 30 6 0 8 3 5 7 -4 3 -2 12 4 20 6 7 9 13 5 13 -4 0
1 14 9 30 9 17 13 35 10 39 -3 5 0 11 5 13 6 2 11 14 12 28 1 14 6 31 11 38 6
8 5 12 -3 12 -9 0 -10 3 -1 13 8 10 7 17 -2 27 -6 7 -7 10 -1 7 7 -4 11 9 12
35 1 23 4 44 7 46 3 3 0 11 -6 19 -7 7 -7 13 -2 13 6 0 9 31 8 75 -1 42 1 78
6 81 5 3 3 14 -3 24 -10 15 -10 22 -1 31 9 9 9 16 0 30 -9 14 -9 21 0 30 9 9
9 16 0 30 -9 14 -9 21 0 30 9 9 9 16 0 29 -8 14 -8 22 2 33 7 9 8 18 2 21 -5
4 -7 48 -4 109 3 56 5 117 5 135 -1 17 3 32 8 32 5 0 7 9 5 20 -2 11 0 20 6
20 5 0 9 14 9 30 0 17 5 30 11 30 5 0 8 4 4 9 -3 6 3 14 12 20 10 5 15 13 11
16 -8 8 47 56 85 73 15 6 38 17 51 23 13 6 29 8 35 5 6 -4 11 -2 11 3 0 6 7
11 16 11 9 0 12 -5 8 -12 -5 -8 -1 -8 10 1 19 16 58 23 50 9 -3 -4 -1 -8 5 -8
5 0 11 6 14 13 3 9 7 9 19 -1 11 -9 18 -10 23 -2 4 7 13 7 27 -1 16 -9 19 -8
13 2 -6 9 -3 11 9 6 15 -6 16 2 14 86 -2 75 -6 91 -18 89 -14 -3 -24 -4 -60
-1 -8 0 -25 -2 -38 -5 -12 -3 -20 -1 -17 3 2 5 -19 9 -47 10 -28 0 -55 6 -58
12 -4 6 -10 10 -14 10 -23 -3 -36 0 -32 8 4 5 -2 7 -11 5 -10 -3 -30 6 -45 21
-15 14 -32 25 -38 25 -5 0 -9 3 -9 8 3 19 -2 33 -11 27 -5 -3 -10 0 -10 8 0 8
-6 27 -14 42 -8 15 -12 34 -9 41 3 8 1 14 -4 14 -5 0 -10 6 -11 13 -1 6 -3 37
-6 67 -3 30 -6 55 -6 55 -7 0 -5 164 3 179 6 12 5 16 -1 12 -11 -6 -11 118 0
129 4 4 2 16 -5 26 -9 14 -9 21 0 30 9 9 9 16 0 30 -9 14 -9 21 0 30 9 9 9 16
0 30 -9 14 -9 21 1 31 9 9 8 16 -5 30 -10 11 -12 18 -4 18 14 0 11 31 -4 42
-6 5 -6 8 2 8 8 0 10 12 7 33 -2 17 -6 43 -8 57 -2 14 1 31 7 38 7 9 6 11 -5
7 -9 -4 -15 0 -15 10 0 8 5 15 11 15 6 0 4 5 -4 10 -13 9 -13 10 0 10 11 0 12
2 3 8 -7 4 -14 17 -16 27 -1 11 -6 26 -10 33 -5 6 -6 12 -2 12 3 0 -1 13 -9
29 -9 16 -12 31 -9 35 4 3 0 6 -7 6 -7 0 -11 3 -7 6 3 3 -3 15 -14 27 -10 11
-19 27 -19 34 0 8 -4 11 -10 8 -5 -3 -10 1 -10 9 0 9 -7 16 -16 16 -9 0 -12 5
-8 12 4 6 3 8 -4 4 -6 -3 -17 0 -24 8 -8 8 -23 16 -34 18 -10 2 -18 9 -17 15
1 6 -6 9 -18 6 -11 -3 -28 2 -39 12 -14 12 -20 14 -20 5 0 -9 -3 -10 -13 -1
-8 6 -17 8 -20 4 -4 -3 -7 -2 -7 4 0 6 -16 11 -35 11 -20 0 -43 6 -52 14 -12
9 -15 9 -9 1 5 -9 1 -13 -13 -13 -10 0 -22 6 -24 13 -4 9 -8 8 -16 -3 -6 -8
-11 -10 -11 -4 0 8 -36 12 -115 13 l-115 2 0 -93z"/>
<path d="M4430 4555 l0 -135 155 0 155 0 0 134 0 134 -155 1 -155 0 0 -134z"/>
<path d="M1789 4552 c-31 -4 -18 29 -169 -412 -155 -451 -207 -602 -284 -822
l-44 -128 144 0 143 0 49 153 48 152 253 0 253 0 50 -152 51 -153 144 0 c134
0 145 1 140 18 -3 9 -39 114 -80 232 -41 118 -108 307 -147 420 -39 113 -103
295 -142 405 -38 110 -74 214 -79 230 -17 56 -16 56 -165 58 -76 1 -151 1
-165 -1z m301 -788 c0 -11 -313 -14 -325 -3 -3 4 -1 17 4 30 8 20 121 371 147
459 6 20 24 -25 91 -225 45 -137 83 -255 83 -261z"/>
<path d="M3750 4494 c-47 -6 -102 -14 -123 -17 -21 -3 -41 -8 -44 -11 -3 -3
-5 -54 -4 -114 l1 -109 -77 1 -78 0 -2 -104 c-3 -154 -7 -147 81 -145 l75 1 0
-300 c-1 -197 3 -317 11 -346 18 -72 58 -121 128 -157 59 -31 65 -32 164 -28
101 3 185 21 221 48 18 12 18 16 -2 87 -34 126 -37 135 -52 131 -53 -14 -109
-21 -137 -16 -60 11 -63 22 -60 316 l3 264 120 0 120 0 2 125 3 125 -125 -1
-125 -1 0 128 c0 70 -3 130 -7 132 -5 2 -46 -2 -93 -9z"/>
<path d="M3230 4272 c-77 -10 -148 -67 -202 -163 -12 -21 -25 -39 -29 -39 -4
0 -6 38 -6 85 1 49 -2 86 -8 88 -5 1 -66 2 -135 2 l-125 -1 -3 -527 -2 -527
135 0 135 0 1 28 c0 15 1 154 1 309 l1 283 53 64 c61 74 110 98 189 94 l50 -3
7 60 c4 33 10 101 14 151 l6 91 -28 4 c-16 2 -40 3 -54 1z"/>
<path d="M5383 4255 c-83 -23 -153 -63 -213 -124 -102 -103 -156 -247 -159
-427 -6 -274 117 -461 344 -525 31 -9 98 -14 175 -14 101 0 139 4 196 22 l71
23 -20 112 c-10 62 -20 115 -22 116 -2 2 -30 -3 -62 -11 -34 -9 -94 -14 -143
-13 -73 1 -92 5 -138 31 -89 49 -134 139 -133 267 0 133 54 233 151 284 58 30
188 25 273 -11 33 -14 37 -14 37 0 0 8 0 16 -1 18 0 1 4 14 10 28 5 15 12 45
16 66 3 22 10 55 15 74 13 45 2 54 -94 79 -93 24 -225 26 -303 5z"/>
<path d="M4280 4125 l0 -124 93 -3 92 -3 1 -265 c0 -146 -2 -270 -4 -277 -2
-7 -30 -11 -80 -11 -42 0 -83 0 -89 -1 -10 -1 -13 -33 -13 -124 l0 -123 304 0
c167 1 307 4 311 8 6 5 9 157 6 228 -1 12 -16 15 -81 13 l-80 -1 -1 31 c0 18
-1 200 -1 405 l0 372 -229 0 -229 0 0 -125z"/>
<path d="M4398 3002 c-13 -2 -15 -33 -16 -213 l0 -210 96 2 c172 3 255 64 269
197 10 94 -35 174 -116 208 -32 13 -190 24 -233 16z m194 -93 c39 -16 60 -54
60 -109 0 -87 -59 -145 -140 -138 l-37 3 -1 120 c0 66 3 125 8 131 9 13 70 9
110 -7z"/>
<path d="M6025 3001 c-101 -25 -158 -107 -156 -228 1 -122 75 -195 200 -199
72 -2 122 11 116 29 -2 7 -6 24 -9 38 -5 25 -9 26 -40 19 -97 -22 -163 19
-173 107 -12 118 70 184 183 148 19 -6 22 -2 28 30 4 21 3 42 -2 47 -12 12
-110 18 -147 9z"/>
<path d="M4915 2909 c-67 -18 -109 -86 -107 -170 1 -73 26 -117 82 -146 48
-26 89 -29 157 -12 44 12 45 12 39 47 -6 42 -13 49 -28 34 -21 -21 -111 -15
-136 8 -42 39 -30 46 81 46 l102 -1 3 42 c8 106 -87 180 -193 152z m99 -91
c12 -17 13 -24 3 -29 -14 -8 -113 -6 -121 2 -3 3 3 15 14 27 28 30 83 30 104
0z"/>
<path d="M6360 2912 c-34 -5 -87 -47 -106 -84 -9 -17 -16 -56 -16 -87 -1 -73
28 -122 86 -150 138 -67 274 48 236 200 -23 89 -100 136 -200 121z m97 -100
c15 -21 15 -19 17 -62 2 -19 -3 -47 -11 -62 -23 -47 -95 -50 -122 -7 -16 27
-17 90 -1 119 22 41 89 48 117 12z"/>
<path d="M5150 2897 c0 -7 22 -76 50 -153 27 -76 50 -145 50 -151 0 -9 18 -13
55 -13 64 0 50 -21 125 190 l47 135 -48 0 c-50 0 -48 2 -64 -57 -2 -5 -3 -9
-5 -10 -1 -2 -3 -10 -5 -18 -2 -8 -12 -42 -23 -75 l-19 -60 -35 110 -35 110
-47 3 c-34 2 -46 0 -46 -11z"/>
<path d="M5537 2801 c-1 -3 -2 -19 -2 -36 l0 -30 120 0 c72 0 123 3 127 10 4
5 8 22 8 37 l0 26 -125 0 c-69 -1 -127 -4 -128 -7z"/>
</g>
</svg>
